<svg width="29" height="26" viewBox="0 0 29 26" fill="none" xmlns="http://www.w3.org/2000/svg">
<path d="M14.4463 25.9745C10.7275 25.9745 6.99668 25.9141 3.27791 25.9986C0.380168 26.0711 -0.730634 23.257 0.488833 21.2039C4.28005 14.8511 7.9143 8.40167 11.6089 1.98851C11.9953 1.32424 12.4058 0.684133 13.1302 0.321807C14.5912 -0.390767 16.2212 0.104411 17.0784 1.56579C19.8313 6.31226 22.5721 11.0708 25.3249 15.8173C26.3995 17.6772 27.4741 19.5372 28.5487 21.4092C29.7681 23.559 28.3917 25.9503 25.9165 25.9503C22.0891 25.9866 18.2617 25.9745 14.4463 25.9745ZM16.4144 9.33164C16.4385 7.84611 15.533 6.95237 14.3497 6.9886C13.2027 7.02483 12.3696 7.96688 12.4783 9.12632C12.5024 9.42826 12.5507 9.7302 12.6111 10.0201C13.0578 12.2061 13.5287 14.3921 13.9754 16.5661C14.0358 16.868 14.0479 17.1096 14.4584 17.0975C14.8689 17.0854 14.8689 16.7956 14.9172 16.5178C15.1466 15.2979 15.376 14.066 15.6295 12.8462C15.9072 11.566 16.197 10.2978 16.4144 9.33164ZM14.4463 22.0855C15.5209 22.0855 16.4144 21.228 16.4023 20.2014C16.3902 19.1869 15.4847 18.3173 14.4342 18.3173C13.3717 18.3173 12.5024 19.1748 12.5024 20.2135C12.5024 21.2763 13.3476 22.0855 14.4463 22.0855Z" fill="black"/>
</svg>
