<svg width="48" height="48" viewBox="0 0 48 48" fill="none" xmlns="http://www.w3.org/2000/svg">
<circle cx="24" cy="24" r="24" fill="#128C7E"/>
<path d="M17 34C17.1114 33.4886 17.2117 33.0114 17.3231 32.5341C17.869 30.0455 18.4149 27.5682 18.9719 25.0795C19.0164 24.8864 19.0499 24.6932 19.1056 24.5114C19.1167 24.4773 19.1724 24.4318 19.2058 24.4205C20.1305 24.3409 21.0663 24.2614 21.991 24.1818C22.9045 24.1023 23.818 24.0227 24.7204 23.9545C25.6005 23.875 26.4918 23.8068 27.3719 23.7273C28.3968 23.6364 29.4106 23.5568 30.4355 23.4659C30.792 23.4318 31.1597 23.4091 31.5162 23.375C31.5607 23.375 31.6387 23.3295 31.6387 23.3068C31.6499 23.2045 31.5607 23.2273 31.505 23.2273C30.8143 23.1818 30.1347 23.1477 29.444 23.1136C28.1183 23.0341 26.7926 22.9659 25.4557 22.8864C24.5979 22.8409 23.7401 22.7841 22.8822 22.7386C21.6568 22.6705 20.4313 22.6023 19.217 22.5341C19.139 22.5341 19.1167 22.5 19.1056 22.4205C18.9496 21.5909 18.7825 20.75 18.6154 19.9205C18.2255 17.875 17.8355 15.8409 17.4345 13.8068C17.3788 13.5455 17.3342 13.2841 17.2785 13C24.1968 16.4091 31.0817 19.8068 38 23.2159C30.9926 26.8182 24.0186 30.3977 17 34Z" fill="white"/>
</svg>
